# xmcd CD database file
#
# Track frame offsets:
#	150
#	14856
#	32680
#	47639
#	58534
#	80321
#	94001
#	108401
#	124156
#	145083
#
# Disc length: 2186 seconds
#
# Revision: 0
# Processed by: cddbd v1.5.2PL0 Copyright (c) Steve Scherf et al.
# Submitted via: CDex 1.70beta2
#
DISCID=8008880a
DTITLE=Steve Dooks - Cocktails, Heartaches, and Cigars
DYEAR=2007
DGENRE=Jazz
TTITLE0=Smooth And Easy
TTITLE1=What Does Your Heart Say
TTITLE2=The Smile On Your Face
TTITLE3=Cocktails, Heartaches, and Cigars
TTITLE4=In My Dreams
TTITLE5=Let's Eat Home
TTITLE6=My Attorney Bernie
TTITLE7=I've Grown Accustomed To Her Face
TTITLE8=I Don't Have You Any More
TTITLE9=It's Called The Blues
EXTD=YEAR: 2007
EXTT0=
EXTT1=
EXTT2=
EXTT3=
EXTT4=
EXTT5=
EXTT6=
EXTT7=
EXTT8=
EXTT9=
PLAYORDER=
